<svg xmlns="http://www.w3.org/2000/svg">

    <symbol id="arrow" viewBox="0 0 24 24">
        <path d="M5.11707 9.954L12.0711 17.1421L19.0251 9.954" stroke="#00A0AB" stroke-width="2" stroke-linecap="round" stroke-linejoin="round"/>
    </symbol>

    <symbol id="dot_gray" viewBox="0 0 8 8">
        <circle cx="4" cy="4" r="3.5" fill="#C4C4C4" stroke="#5A5A5A"/>
    </symbol>

    <symbol id="car" viewBox="0 0 24 24">
        <title id="car-title">Delivery</title>
        <path d="M6.42149 19.4359C7.50379 19.4359 8.38116 18.5586 8.38116 17.4763C8.38116 16.394 7.50379 15.5166 6.42149 15.5166C5.3392 15.5166 4.46183 16.394 4.46183 17.4763C4.46183 18.5586 5.3392 19.4359 6.42149 19.4359Z"/>
        <path d="M19.6681 7.15664C19.3836 6.62438 18.8285 6.29261 18.225 6.29395H15.9336V9.3589C15.9336 9.70028 16.2333 9.97641 16.5748 9.97641H21.1774L19.6681 7.15664Z"/>
        <path d="M17.5007 15.5166C16.4183 15.5166 15.5409 16.394 15.5409 17.4764C15.5409 18.5588 16.4183 19.4362 17.5007 19.4362C18.5831 19.4362 19.4605 18.5588 19.4605 17.4764C19.4605 17.4764 19.4605 17.4763 19.4605 17.4763C19.4592 16.3945 18.5825 15.5178 17.5007 15.5166Z"/>
        <path d="M22.6466 12.064L21.6335 10.7729H16.5748C15.7943 10.7729 15.1374 10.1396 15.1374 9.35918V5.58964C15.1447 5.27131 14.8925 5.00741 14.5742 5.00015C14.5629 4.9999 14.5516 4.99995 14.5403 5.0004H2.63458C2.29315 5.0004 2 5.24822 2 5.58964V16.4847C2 16.8262 2.29315 17.0928 2.63458 17.0928H3.69119C3.89637 15.585 5.285 14.529 6.79282 14.7341C8.01972 14.901 8.98457 15.8659 9.15153 17.0928H14.7706C14.9759 15.5849 16.3646 14.529 17.8725 14.7342C19.0993 14.9012 20.064 15.866 20.231 17.0928H22.3654C22.7068 17.0928 23 16.8262 23 16.4847V13.0707C22.9966 12.7053 22.8724 12.3514 22.6466 12.064Z"/>
    </symbol>

    <symbol id="deal" viewBox="0 0 24 24">
        <title id="deal-title">Deal</title>
        <path fill-rule="evenodd" clip-rule="evenodd" d="M4.5 5.15789L12 2L19.5 5.15789V13.0526C18.4286 20.9474 12 22 12 22C12 22 5.57143 20.9474 4.5 13.0526V5.15789ZM12.4372 8.05071C12.2467 7.70761 11.7533 7.7076 11.5628 8.05071L10.7794 9.46196C10.7069 9.59262 10.5797 9.68399 10.4328 9.71103L8.83876 10.0043C8.44683 10.0764 8.29263 10.5556 8.56895 10.8427L9.6728 11.9898C9.7783 12.0995 9.82814 12.2512 9.80822 12.402L9.60032 13.9761C9.54863 14.3674 9.94958 14.6615 10.3073 14.4947L11.7887 13.8038C11.9226 13.7414 12.0774 13.7414 12.2113 13.8038L13.6927 14.4947C14.0504 14.6615 14.4514 14.3674 14.3997 13.9761L14.1918 12.402C14.1719 12.2512 14.2217 12.0995 14.3272 11.9898L15.4311 10.8427C15.7074 10.5556 15.5532 10.0764 15.1613 10.0043L13.5672 9.71103C13.4203 9.68399 13.2931 9.59262 13.2206 9.46196L12.4372 8.05071Z"/>
    </symbol>

    <symbol id="like_white" viewBox="0 0 24 24">
    <title id="like-title">Like</title>
        <path d="M11.7145 22.3777L12.0346 22.6553L12.3609 22.3852C13.7603 21.2268 15.9105 19.3458 17.8187 17.4619C18.7725 16.5203 19.6721 15.5719 20.3888 14.7086C21.0941 13.859 21.6617 13.0463 21.9022 12.3825C22.9848 9.3955 22.7974 5.73779 19.6122 3.72888C17.6001 2.45985 15.589 2.78969 14.1306 3.40281C13.4019 3.70916 12.7982 4.09036 12.3774 4.39363C12.2533 4.4831 12.1445 4.56621 12.0524 4.63922C12.0244 4.61489 11.9949 4.5894 11.9638 4.5629C11.7025 4.33971 11.334 4.04131 10.9066 3.74188C10.4805 3.44341 9.98677 3.13747 9.47528 2.90464C8.96903 2.6742 8.41214 2.4999 7.86869 2.5C6.19655 2.5003 4.01031 3.18253 2.76019 5.02228C1.07992 7.49509 1.07994 11.172 2.76022 13.6446C3.42257 14.6193 5.07482 16.289 6.82054 17.9439C8.58336 19.615 10.4931 21.3185 11.7145 22.3777Z" fill="white" stroke="#2C2C2C"/>
    </symbol>

    <symbol id="like_transp" viewBox="0 0 24 24">
    <title id="like-title">Like</title>
        <g clip-path="url(#clip0)">
            <g filter="url(#filter0_d)">
                <path d="M21.4321 12.2122C20.5975 14.5152 14.8243 19.697 12.0421 22C9.60767 19.8889 4.42577 15.206 3.17377 13.3636C1.60876 11.0606 1.60874 7.60649 3.17375 5.3033C4.30214 3.64268 6.3037 3.00028 7.86878 3C9.64009 2.99968 12.0421 5.30302 12.0421 5.30302C12.0421 5.30302 15.6938 1.84866 19.3455 4.15179C22.2456 5.98093 22.4755 9.3334 21.4321 12.2122Z" stroke="white" stroke-width="2" stroke-linejoin="round"/>
            </g>
        </g>
        <defs>
            <filter id="filter0_d" x="-19" y="-18" width="61.9965" height="61" filterUnits="userSpaceOnUse" color-interpolation-filters="sRGB">
                <feFlood flood-opacity="0" result="BackgroundImageFix"/>
                <feColorMatrix in="SourceAlpha" type="matrix" values="0 0 0 0 0 0 0 0 0 0 0 0 0 0 0 0 0 0 127 0" result="hardAlpha"/>
                <feOffset/>
                <feGaussianBlur stdDeviation="10"/>
                <feColorMatrix type="matrix" values="0 0 0 0 0 0 0 0 0 0 0 0 0 0 0 0 0 0 0.1 0"/>
                <feBlend mode="normal" in2="BackgroundImageFix" result="effect1_dropShadow"/>
                <feBlend mode="normal" in="SourceGraphic" in2="effect1_dropShadow" result="shape"/>
            </filter>
            <clipPath id="clip0">
                <rect width="24" height="24" fill="white"/>
            </clipPath>
        </defs>
    </symbol>



    <symbol id="compare_white" viewBox="0 0 24 24">
        <title id="compare-title">Compare</title>
        <path d="M9.5 2.73684V21.2632L9.5 21.2669C9.49997 21.3799 9.49981 21.9023 9.73278 22.4119C9.85392 22.6768 10.0453 22.9547 10.346 23.1653C10.6505 23.3786 11.0346 23.5 11.5 23.5C11.9654 23.5 12.3495 23.3786 12.654 23.1653C12.9547 22.9547 13.1461 22.6768 13.2672 22.4119C13.5002 21.9023 13.5 21.3799 13.5 21.2669L13.5 21.2632V2.73684C13.5 2.38076 13.4113 1.84835 13.1246 1.38729C12.8213 0.899478 12.2959 0.5 11.5 0.5C10.7041 0.5 10.1787 0.899478 9.87539 1.38729C9.5887 1.84835 9.5 2.38076 9.5 2.73684Z" fill="white" stroke="#2C2C2C"/>
        <path d="M16.5 7.34211V21.6579L16.5 21.6609C16.5 21.757 16.4998 22.2045 16.7572 22.6395C17.0432 23.1228 17.5906 23.5 18.5 23.5C19.4094 23.5 19.9568 23.1228 20.2428 22.6395C20.5002 22.2045 20.5 21.757 20.5 21.6609L20.5 21.6579V7.34211C20.5 7.02628 20.3986 6.57393 20.0895 6.18983C19.7632 5.78424 19.2408 5.5 18.5 5.5C17.7592 5.5 17.2368 5.78424 16.9105 6.18983C16.6014 6.57393 16.5 7.02628 16.5 7.34211Z" fill="white" stroke="#2C2C2C"/>
        <path d="M2.5 10.1053V21.8947L2.5 21.8963C2.49999 21.9845 2.49994 22.3934 2.78144 22.7852C3.08545 23.2083 3.63206 23.5 4.5 23.5C5.36794 23.5 5.91455 23.2083 6.21856 22.7852C6.50006 22.3934 6.50001 21.9845 6.5 21.8963V21.8947V10.1053C6.5 9.80295 6.38228 9.39728 6.05762 9.06503C5.72148 8.72103 5.20807 8.5 4.5 8.5C3.79193 8.5 3.27852 8.72103 2.94238 9.06503C2.61772 9.39728 2.5 9.80295 2.5 10.1053Z" fill="white" stroke="#2C2C2C"/>
    </symbol>

    <symbol id="compare_transp" viewBox="0 0 24 24">
        <title id="compare-title">Compare</title>
        <g clip-path="url(#clip0)">
            <g filter="url(#filter0_d)">
                <path d="M10 21.2632V2.73684C10 2.15789 10.3 1 11.5 1C12.7 1 13 2.15789 13 2.73684V21.2632C13 21.4561 13 23 11.5 23C10 23 10 21.4561 10 21.2632Z" stroke="white" stroke-width="2"/>
            </g>
            <g filter="url(#filter1_d)">
                <path d="M17 21.6579V7.34211C17 6.89474 17.3 6 18.5 6C19.7 6 20 6.89474 20 7.34211V21.6579C20 21.807 20 23 18.5 23C17 23 17 21.807 17 21.6579Z" stroke="white" stroke-width="2"/>
            </g>
            <g filter="url(#filter2_d)">
                <path d="M3 21.8947V10.1053C3 9.73684 3.3 9 4.5 9C5.7 9 6 9.73684 6 10.1053V21.8947C6 22.0175 6 23 4.5 23C3 23 3 22.0175 3 21.8947Z" stroke="white" stroke-width="2"/>
            </g>
        </g>
        <defs>
            <filter id="filter0_d" x="-11" y="-20" width="45" height="64" filterUnits="userSpaceOnUse" color-interpolation-filters="sRGB">
                <feFlood flood-opacity="0" result="BackgroundImageFix"/>
                <feColorMatrix in="SourceAlpha" type="matrix" values="0 0 0 0 0 0 0 0 0 0 0 0 0 0 0 0 0 0 127 0" result="hardAlpha"/>
                <feOffset/>
                <feGaussianBlur stdDeviation="10"/>
                <feColorMatrix type="matrix" values="0 0 0 0 0 0 0 0 0 0 0 0 0 0 0 0 0 0 0.1 0"/>
                <feBlend mode="normal" in2="BackgroundImageFix" result="effect1_dropShadow"/>
                <feBlend mode="normal" in="SourceGraphic" in2="effect1_dropShadow" result="shape"/>
            </filter>
            <filter id="filter1_d" x="-4.00001" y="-15" width="45" height="59" filterUnits="userSpaceOnUse" color-interpolation-filters="sRGB">
                <feFlood flood-opacity="0" result="BackgroundImageFix"/>
                <feColorMatrix in="SourceAlpha" type="matrix" values="0 0 0 0 0 0 0 0 0 0 0 0 0 0 0 0 0 0 127 0" result="hardAlpha"/>
                <feOffset/>
                <feGaussianBlur stdDeviation="10"/>
                <feColorMatrix type="matrix" values="0 0 0 0 0 0 0 0 0 0 0 0 0 0 0 0 0 0 0.1 0"/>
                <feBlend mode="normal" in2="BackgroundImageFix" result="effect1_dropShadow"/>
                <feBlend mode="normal" in="SourceGraphic" in2="effect1_dropShadow" result="shape"/>
            </filter>
            <filter id="filter2_d" x="-18" y="-12" width="45" height="56" filterUnits="userSpaceOnUse" color-interpolation-filters="sRGB">
                <feFlood flood-opacity="0" result="BackgroundImageFix"/>
                <feColorMatrix in="SourceAlpha" type="matrix" values="0 0 0 0 0 0 0 0 0 0 0 0 0 0 0 0 0 0 127 0" result="hardAlpha"/>
                <feOffset/>
                <feGaussianBlur stdDeviation="10"/>
                <feColorMatrix type="matrix" values="0 0 0 0 0 0 0 0 0 0 0 0 0 0 0 0 0 0 0.1 0"/>
                <feBlend mode="normal" in2="BackgroundImageFix" result="effect1_dropShadow"/>
                <feBlend mode="normal" in="SourceGraphic" in2="effect1_dropShadow" result="shape"/>
            </filter>
            <clipPath id="clip0">
                <rect width="24" height="24" fill="white"/>
            </clipPath>
        </defs>
    </symbol>


</svg>